<?xml version="1.0" encoding="UTF-8"?>
<svg xmlns="http://www.w3.org/2000/svg" id="图层_1" data-name="图层 1" viewBox="0 0 510.24 323.15">
  <title>Penguin Random House</title>
  <path d="M144.71,97.38c-43.66.07-45.52,54.55-45.5,64.56.05,30.34,12.42,63.91,45.74,63.83s45.55-33.87,45.5-64.22c0-10-2.06-64.27-45.74-64.17"></path>
  <path d="M145,224c-31.65.07-40.18-33.58-40.25-62.43,0-9.5-1.62-62.58,39.89-62.66s40.35,53.26,40.37,62.75c0,28.85-8.36,62.27-40,62.34" style="fill:#07080a"></path>
  <path d="M145,224c-31.65.07-40.18-33.58-40.25-62.43,0-9.5-1.62-62.58,39.89-62.66s40.35,53.26,40.37,62.75c0,28.85-8.36,62.27-40,62.34" style="fill:#ff6f00"></path>
  <path d="M165.83,147c-3.72-5.92-8.94-12.93-9.52-20.13-.36-4.52-.1-9.57-3.14-13.29a11.21,11.21,0,0,0-3.39-2.73,10.24,10.24,0,0,0-4.54-1.14,14.5,14.5,0,0,0-4.18.63,31.56,31.56,0,0,1-4.83,1.28,14.23,14.23,0,0,1-5.36-.24c-1.12-.24-1.43-.34-2.54-.58-.61-.12-2.3-.63-2.83-.1-1.26,1.26,1.43,2.78,2.22,3.36a50.94,50.94,0,0,1,4.16,3.14,13.85,13.85,0,0,1,4.74,7.23,11.53,11.53,0,0,1,.26,2.56c.17,12.61-20.87,25-20.58,47.33.09,7.9,4.32,9.21,4.25,4.81-.07-5.19,1.79-10.82,3.69-15.63.44-1.11,1.87-1.45,1.55.48a80.4,80.4,0,0,0-1.64,17,43.32,43.32,0,0,0,.46,6.23,33.82,33.82,0,0,0,1.08,4.91,21.71,21.71,0,0,0,1.6,3.91,17.17,17.17,0,0,0,1.84,2.78,14.94,14.94,0,0,0,2.31,2.12,3.38,3.38,0,0,1,1.29,1.36c.33.92-.83,1.28-1.43,1.54s-1.26.63-1.88.95c-.92.46-1.82.91-2.71,1.4-.56.31-1.16.48-1.69.84s-.78.92,0,1a4.55,4.55,0,0,0,1.16-.05,4.84,4.84,0,0,1,1.93.12c.83.32.78,1.12.83,1.89s.62,1.11,1.35.89a6,6,0,0,0,2.13-1.45,8.57,8.57,0,0,1,1.57-1.11,7.52,7.52,0,0,1,3.72-.31c.67,0,1.64.31,2.17-.24s.17-1.53-.09-2.15-.54-1.16-.83-1.74c-.14-.27-.31-.49-.43-.75-.48-1.11,3.36-1.94,3.91-2.08a32.78,32.78,0,0,1,5.73-1.11,11.8,11.8,0,0,1,5.56.55,4.74,4.74,0,0,1,1.81,1.45c.29.34.92,1.38.34,1.79-.87.63-1.79,1.21-2.66,1.89a11.79,11.79,0,0,0-1.52,1.4c-.34.38-.44,1.08.26,1,.92-.05,1.86-.1,2.78-.1a3.58,3.58,0,0,1,1.93.46c.92.63,1.12,2,2.13,2.44a1.32,1.32,0,0,0,.94.05c.68-.2,1-.92,1.36-1.45a3.68,3.68,0,0,1,1.2-1.28,2.15,2.15,0,0,1,1.09-.27,20.29,20.29,0,0,1,2.06.1c.53.07,1.28.31,1.73,0,.9-.7-1.47-2.25-1.93-2.54-1.09-.67-2.63-1.37-3-2.78-.39-1.61.41-3.31,1.09-4.76a46.12,46.12,0,0,0,2.24-4.51,25,25,0,0,0,1.14-4.52c1.18-8.46-.77-17.45-3.24-25.52-.29-1-.67-1.91-1-2.9-.44-1.52,1-1.88,1.81-.38s5.46,10.51,6.84,17.27c.87,4.3,4.13,4.47,4-3.16-.12-11-4.3-19-9.42-27.18"></path>
  <path d="M161.91,180.35c.58,5.58,1.19,15.2-5.6,15.51-1.81.1-4-1.18-7.4-.94-5.67.38-7.34,2.56-12,1.71a7.3,7.3,0,0,1-5.73-4.54c-1.25-2.92-1.37-6.23-1.57-9.37a88.25,88.25,0,0,1,0-10.54c.15-2.54.44-5.07.75-7.58.56-4.18,1.45-8.32,2.39-12.42a54.63,54.63,0,0,1,3.29-10.64,12.35,12.35,0,0,1,5.36-6.13,11,11,0,0,1,9.33-.1c6.11,3.14,6,10.44,6.16,16.41a95.3,95.3,0,0,0,1.55,13.77c.92,5,2.95,9.78,3.45,14.86" style="fill:#fff"></path>
  <path d="M152,119.05c1.25,1.47,1.18,7.54-.87,9.64-1.21,1.23-3.24,1.38-4.84,1.62-1.78.24-3.5.65-5.26,1.06s-1.55-1.35.05-2.61c2.39-1.88,8.4-2.73,9.85-9.71.05-.27.37-.85,1.07,0" style="fill:#fff"></path>
  <path d="M143.28,120.64a4,4,0,0,0,5.37-1.57c1.25-1.95.94-4.44-.75-5.53a4.28,4.28,0,0,0-4.62,7.1" style="fill:#fff"></path>
  <path d="M144.88,116.83a1.65,1.65,0,1,1,.19,2.56,1.83,1.83,0,0,1-.19-2.56"></path>
  <path d="M283.16,137.53c4.59,0,7.25-2.15,8.31-5.38l-1.3-.46c-1.19,2.7-3.31,4.18-6.75,4.18-5.31,0-8.43-3.68-8.43-9.4v-.41h16.72a11.49,11.49,0,0,0,.05-1.36c0-4.64-2.9-9.4-9-9.4s-9.86,4.55-9.86,11.12,4,11.11,10.25,11.11ZM282.72,117c3.41,0,6.87,2.25,7,7.42H275.11c.63-4.49,3.48-7.42,7.61-7.42ZM376.13,111a1.82,1.82,0,1,0,0-3.63,1.82,1.82,0,0,0,0,3.63Zm-98.89,60.62c0,3.17,2.44,5.27,6.28,5.27a11.52,11.52,0,0,0,8-3.41,3.3,3.3,0,0,0,3.51,2.78,3.5,3.5,0,0,0,3.69-3.24l-1-.41c-.34,1.31-1,2-2.1,2-1.48,0-2.15-.75-2.15-3.45v-9.14c0-4.2-1.72-7.34-7.35-7.34-3.29,0-5.19,1-6.5,2.15a3.87,3.87,0,0,0-1.47,2.61,1.18,1.18,0,0,0,1.25,1.23c1,0,1.14-1,1.72-2,.72-1.26,1.81-2.25,4.81-2.25,3.38,0,5.38,1.81,5.38,5.43v2.37c-9,0-14.06,2.61-14.08,7.42Zm14.13.17a10.74,10.74,0,0,1-7.51,3.41c-2.49,0-4.54-1.19-4.54-3.58,0-3,2.56-5.77,12.05-5.94v6.11Zm30-31.19c0,3.23,3.07,5.94,9.33,5.94s10-2.73,10-6.35c0-4-4.69-5.08-9.28-5.44-3.41-.29-6.57-.41-6.57-2.1,0-.85.84-1.65,4.59-1.65h1.4c5.05,0,8.31-3.45,8.31-7.92a7.79,7.79,0,0,0-2.05-5.32c.29-3.84,3.67-1.93,3.67-3.91,0-.85-.51-1.26-1.36-1.26-1.93,0-3.4,1.94-3.67,4A8.15,8.15,0,0,0,331,115.3c-5.14,0-8.48,3.46-8.48,7.81a7.57,7.57,0,0,0,3.92,6.84c-2.27.21-3.51,1.4-3.51,3,0,1.14.73,2.23,2.61,2.88a5.2,5.2,0,0,0-4.23,4.81Zm3.12-17.45a6.15,6.15,0,0,1,6.4-6.23,6.25,6.25,0,1,1-.12,12.49,6.25,6.25,0,0,1-6.28-6.26Zm3.46,13.1,4.2.38c4.93.44,6.45,1.86,6.45,3.7,0,2.56-2.61,4.54-7.88,4.54-4.71,0-7.41-1.91-7.41-4.42,0-1.88,1.62-3.7,4.64-4.2Zm8.48,18.41c-5.9,0-9.86,4.59-9.86,11.26s3.5,11,9.35,11a8,8,0,0,0,7.3-4l.05,3.63.12.07L350,176v-1.13h-4.76V144.44l-1.13-.33a8.15,8.15,0,0,1-6.69,3.57v.92a7.81,7.81,0,0,0,5.72-1V157.9a8.23,8.23,0,0,0-6.76-3.21Zm6.74,15.82a7,7,0,0,1-6.91,4.72c-4.76,0-7.59-3.63-7.59-9.35s3.17-9.48,8-9.48a7.16,7.16,0,0,1,6.5,3.8Zm-44.34-52.14v16.7l-5,.41v1.23H305.7v-1.18l-4.81-.41V122.21c1.72-2.89,4.76-5.09,8.1-5.09s5.19,2.2,5.19,5.55v12.45l-4.88.41v1.18h11.48v-1.23l-4.52-.41V122.46c0-3.85-1.86-7.18-6.86-7.18a10.37,10.37,0,0,0-8.56,4.81v-4.54l-1.18-.34a8.42,8.42,0,0,1-6.74,2.73v.94a9.59,9.59,0,0,0,5.87-.51Zm47.12.12v11.89c0,3.8,1.81,7.18,6.91,7.18a10.39,10.39,0,0,0,8.48-4.69l.05,4.25.12.08,6.57-.63v-1.14H363.4V115.55l-1.18-.34a8.79,8.79,0,0,1-6.79,2.73v.94a9.26,9.26,0,0,0,5.82-.51v12.52a10,10,0,0,1-8.09,4.88c-3.29,0-5.15-2.2-5.15-5.53V115.55l-1.14-.34a7.52,7.52,0,0,1-6.18,2.73v.94a8.48,8.48,0,0,0,5.22-.39Zm-23.73,75.82L321,194a8.86,8.86,0,0,1-6.79,2.73v.91a9.33,9.33,0,0,0,5.82-.5v12.51a10,10,0,0,1-8.09,4.88c-3.29,0-5.15-2.19-5.15-5.53V194.27l-1.14-.34a7.52,7.52,0,0,1-6.18,2.73v.92a8.4,8.4,0,0,0,5.22-.39v11.89c0,3.79,1.81,7.17,6.91,7.17a10.38,10.38,0,0,0,8.48-4.68l.05,4.25.12.07,6.57-.63v-1.13h-4.64V194.31ZM360,154.69c-6.19,0-10.2,4.47-10.2,11.09s4,11.11,10.15,11.11,10.24-4.54,10.24-11.11S366.11,154.69,360,154.69Zm0,20.54c-4.93,0-8.1-3.8-8.1-9.45s3.17-9.4,8.1-9.4,8.14,3.75,8.14,9.4S364.92,175.23,360,175.23Zm-1.53,18.84c-5.94,0-9.86,4.55-9.86,11.12s4,11.11,10.25,11.11c4.59,0,7.25-2.15,8.31-5.39l-1.3-.46c-1.19,2.71-3.31,4.18-6.74,4.18-5.32,0-8.44-3.67-8.44-9.39v-.42h16.72a11.31,11.31,0,0,0,.05-1.35c0-4.64-2.92-9.4-9-9.4Zm-7.66,9.09c.63-4.52,3.51-7.42,7.64-7.42,3.41,0,6.86,2.22,7,7.42Zm19.38-67.68v1.23h12v-1.23l-4.88-.41V115.59l-1.18-.38a8.79,8.79,0,0,1-6.79,2.73v.94a9.3,9.3,0,0,0,5.84-.56V135l-5,.44Zm36.29,26.17c0-3.84-1.59-7-6.06-7a9.22,9.22,0,0,0-7.88,4.59,5.44,5.44,0,0,0-5.77-4.59,9.66,9.66,0,0,0-7.71,4.64V155l-1.18-.33a8.75,8.75,0,0,1-6.75,2.73v.89a9.45,9.45,0,0,0,5.88-.56V174.4l-5,.42v1.23h11v-1.19l-3.86-.41V161.36c1.59-2.78,4.25-4.86,7.17-4.86,3.39,0,4.47,2.27,4.47,5.73v12.22l-4.13.41v1.19H397v-1.19l-4.21-.41V162a5,5,0,0,0,0-.85c1.77-3,4.21-4.64,7.08-4.64,3.41,0,4.52,2.32,4.52,5.68v12.27l-3.84.41v1.19H411v-1.19l-4.59-.46V161.65Zm-69.2,42.4c-2.73-.67-6.18-1.59-6.18-4.59,0-2,1.42-3.74,5.05-3.74,3.23,0,4.93,1.42,6.45,4.08l1.35,2.37L345,202l-1.35-8h-1.13l-.05,3.5a7.34,7.34,0,0,0-6.62-3.41c-4.21,0-6.74,2.37-6.74,5.44,0,4.25,4.85,5.56,7.75,6.33,4,1,6.67,2,6.67,4.86,0,2.53-2.15,4-5.39,4s-5.48-1.69-7.54-5l-1.3-2.15-1.09.22,1.4,8.21h1.19l-.12-4a8.45,8.45,0,0,0,7.75,4.35c4.3,0,7.13-2.27,7.13-5.82-.07-4.11-3.67-5.29-8.29-6.48Zm69.28-69V122.43c0-3.84-1.87-7.17-6.87-7.17a10.29,10.29,0,0,0-8.5,4.8v-4.51l-1.19-.34a8.42,8.42,0,0,1-6.74,2.73v.94a9.3,9.3,0,0,0,5.85-.51v16.7l-5,.41v1.23H396v-1.18l-4.81-.41V122.21c1.72-2.89,4.76-5.09,8-5.09s5.19,2.2,5.19,5.55v12.45l-4.88.41v1.18H411v-1.23l-4.51-.44ZM260.57,174.77l-6.53-.41V163.53h8.68l6.16,12.57h7.71v-1.31l-6.29-.63-5.21-10.63c4.92-.26,7.82-3.79,7.82-8.38s-3.28-8.1-8.33-8.1H245.63v1.31l6.17.46v25.54l-6.17.41v1.3h14.94v-1.3ZM254,148.72h9.81c4.18,0,6.84,2.54,6.84,6.4s-2.23,6.67-6.74,6.67H254V148.72Zm45.23,26.12v1.23h11.94v-1.18l-4.81-.41V161.57a9.78,9.78,0,0,1,8.09-5c3.34,0,5.2,2.16,5.2,5.54V174.5l-4.88.41v1.19h11.5v-1.24l-4.52-.41V161.84c0-3.84-1.86-7.13-6.86-7.13a10.45,10.45,0,0,0-8.56,4.76V155l-1.18-.33a8.63,8.63,0,0,1-6.74,2.73v.89a9.38,9.38,0,0,0,5.87-.51v16.7l-5.05.41Zm-38.68-39.46L254,135V124.66h10c5.22,0,8.27-3.7,8.27-8.68s-3.22-8.36-8.49-8.36H245.63v1.31l6.12.45V135l-6.12.41v1.31h14.94v-1.31ZM254,109.31h9.35c4.13,0,6.67,2.66,6.67,6.62s-2.2,7-6.33,7H254V109.31Zm18.72,78.84,6.19-.46v-1.3H264.26v1.3l6.24.41v11.39H254.07V188.1l6.23-.41v-1.3H245.63v1.3l6.17.46v25.59l-6.17.41v1.31H260.3v-1.31l-6.23-.41V201.18H270.5v12.56l-6.24.41v1.31h14.67v-1.31l-6.19-.41V188.15Zm16.19,5.92c-6.18,0-10.19,4.52-10.19,11.12s4,11.11,10.14,11.11,10.25-4.54,10.25-11.11S295.07,194.07,288.93,194.07Zm0,20.56c-4.93,0-8.09-3.79-8.09-9.44s3.16-9.45,8.09-9.45,8.15,3.79,8.15,9.45S293.89,214.63,288.93,214.63Z"></path>
  <polygon points="217.1 217.58 218.79 217.58 218.79 161.65 218.79 105.59 217.1 105.59 217.1 161.62 217.1 217.58"></polygon>
</svg>
